<svg width="16" height="16" version="1.1" viewBox="0 0 16 16" xmlns="http://www.w3.org/2000/svg">
 <path d="m3 1.0112c-1.1046 0-2 .8954-2 2v1h14v-1c0-1.1046-.89543-2-2-2zm9 1h1v1h-1zm-10.979 3.0098v4.1113c0 4.6125-.01341 4.2928.20312 4.7422.27094.56232.77643.95543 1.3926 1.082.14351.02949 1.1446.03485 5.4609.03125l5.2852-.0039.18945-.06445c.69773-.2341 1.1521-.70256 1.3691-1.4102l.0625-.20117.0078-4.1445.0078-4.1426h-6.9902zm2.1074.92188 1.291.63672c.71025.35041 1.7387.85655 2.2852 1.125l.99414.48828v.76758l-2.25 1.0742c-1.2378.59153-2.2666 1.0826-2.2852 1.0898-.02645.01024-.03346-.12493-.0332-.61914v-.63086l1.457-.64844c.80124-.35685 1.4503-.65663 1.4434-.66406-.007-.0074-.65847-.31129-1.4492-.67578l-1.4375-.66211-.0078-.64062zm4.8945 7.1621h4.8398v.97266h-4.8398v-.48633z" fill="#a5efac"/>
</svg>
