<svg width="16" height="16" version="1.1" viewBox="0 0 16 16" xmlns="http://www.w3.org/2000/svg">
 <path d="m3 1c-1.1046 0-2 .8954-2 2v10c0 1.1046.89543 2 2 2h10c1.1046 0 2-.8954 2-2v-10c0-1.1046-.89543-2-2-2zm.69141 2.3457c.17648 0 .35168.06652.48633.20117 1.1864 1.1858 2.3767 2.3754 3.5645 3.5625.26932.26929.2693.70726 0 .97656l-3.5645 3.5625c-.26929.26931-.70726.2693-.97656 0-.2693-.26931-.2693-.70531 0-.97461 1.0236-1.0237 2.0512-2.0512 3.0762-3.0762l-3.0762-3.0762c-.26931-.26929-.2693-.7053 0-.97461.13465-.13465.31375-.20117.49023-.20117zm4.4805 7.9297c1.3768-2.8e-5 2.7597 0 4.1387 0 .38085-2e-5.68945.3086.68945.68945 0 .38085-.3086.68943-.68945.68945h-4.1387c-.38085 1.9e-5-.68945-.3086-.68945-.68945 0-.38086.3086-.68945.68945-.68945z" fill="#a5efac"/>
</svg>
